<?xml version="1.0" standalone="no"?>
<!DOCTYPE svg PUBLIC "-//W3C//DTD SVG 20010904//EN"
 "http://www.w3.org/TR/2001/REC-SVG-20010904/DTD/svg10.dtd">
<svg version="1.0" xmlns="http://www.w3.org/2000/svg"
 width="500.000000pt" height="500.000000pt" viewBox="0 0 500.000000 500.000000"
 preserveAspectRatio="xMidYMid meet">
<metadata>
Created by potrace 1.15, written by Peter Selinger 2001-2017
</metadata>
<g transform="translate(0.000000,500.000000) scale(0.100000,-0.100000)"
fill="#000000" stroke="none">
<path d="M2315 4824 c-22 -2 -83 -9 -135 -15 -752 -86 -1444 -587 -1786 -1294
-160 -330 -218 -599 -218 -1005 0 -267 13 -386 70 -610 203 -799 903 -1478
1706 -1653 202 -45 279 -52 548 -51 276 0 390 13 604 69 701 182 1340 775
1580 1465 90 257 121 456 121 780 0 275 -13 382 -70 606 -96 375 -296 721
-588 1016 -372 376 -809 601 -1307 673 -102 15 -444 27 -525 19z m525 -228
c387 -66 716 -221 1016 -479 417 -359 668 -820 734 -1347 15 -124 12 -421 -5
-555 -60 -458 -263 -861 -607 -1205 -352 -352 -752 -551 -1228 -610 -124 -15
-421 -12 -555 5 -475 63 -881 273 -1235 641 -311 323 -488 674 -567 1119 -27
154 -24 559 5 715 92 499 334 909 741 1257 300 257 683 421 1101 472 113 14
488 6 600 -13z"/>
<path d="M1390 2510 l0 -1100 1013 0 1012 0 88 88 87 87 0 370 0 370 -90 90
-90 90 90 90 90 90 0 370 0 370 -93 93 -92 92 -1008 0 -1007 0 0 -1100z m1748
511 l2 -225 -52 -53 -53 -53 -214 2 -213 3 -72 209 -72 208 -69 -211 -69 -211
-238 0 -238 0 0 280 0 280 643 -2 642 -3 3 -224z m-1051 -511 c73 -52 132
-102 132 -110 0 -8 -28 -105 -64 -214 -35 -110 -63 -201 -62 -202 1 -1 83 49
182 112 99 63 184 114 189 114 4 0 89 -50 188 -111 98 -61 181 -109 183 -107
3 2 -20 77 -49 166 -30 88 -52 163 -48 166 3 3 71 6 152 6 l146 0 52 -53 52
-53 -2 -225 -3 -224 -642 -3 -643 -2 0 455 0 456 53 -38 c29 -21 112 -81 184
-133z"/>
</g>
</svg>
